    <svg width="109" height="54" viewBox="0 0 109 54" fill="none" xmlns="http://www.w3.org/2000/svg">
    <g filter="url(#filter0_d)">
        <path d="M11.8016 46C9.20666 46 6.61322 46 4.00152 46C4.00152 45.171 4.00152 44.342 4.00152 43.5129C4.85181 43.5129 5.70361 43.5129 6.5539 43.5129C6.5539 42.9623 6.5539 42.4371 6.5539 41.9166C5.69144 41.9166 4.84572 41.9166 4.00152 41.9166C4.00152 40.4151 4.00152 38.9121 4.00152 37.4107C4.45632 37.4107 4.90961 37.4107 5.36441 37.4107C5.36441 36.8554 5.36441 36.3317 5.36441 35.7685C4.89744 35.7685 4.44872 35.7685 4.00152 35.7685C4.00152 33.9696 4.00152 32.1692 4.00152 30.3703C4.85333 30.3703 5.70513 30.3703 6.55542 30.3703C6.55542 29.8577 6.55542 29.3941 6.55542 28.9147C5.69297 28.9147 4.84724 28.9147 4.00152 28.9147C4.00152 27.1934 4.00152 25.4721 4.00152 23.7507C4.45632 23.7507 4.90961 23.7507 5.36745 23.7507C5.36745 23.4248 5.36745 23.1242 5.36745 22.8125C4.90048 22.8125 4.45176 22.8125 4.00152 22.8125C4.00152 20.9029 4.00152 18.9949 4.00152 17.0853C4.85333 17.0853 5.70513 17.0853 6.56302 17.0853C6.56302 16.5964 6.56302 16.1376 6.56302 15.6487C6.4535 15.6487 6.35007 15.6487 6.24664 15.6487C5.49827 15.6424 4.74837 15.636 4 15.6297C4 14.0175 4 12.4069 4 10.7948C4.45328 10.7948 4.90809 10.7948 5.36441 10.7948C5.36441 10.2252 5.36441 9.69837 5.36441 9.15254C4.89744 9.15254 4.44872 9.15254 4 9.15254C4 7.49448 4 5.83484 4 4.17678C4.76358 4.18311 5.52717 4.19102 6.28923 4.19735C6.37593 4.19735 6.46263 4.19735 6.5539 4.19735C6.5539 3.64045 6.5539 3.11519 6.5539 2.58201C5.69144 2.58201 4.84572 2.58201 4 2.58201C4 1.72134 4 0.860671 4 0C6.59649 0 9.19298 0 11.7986 0C11.7986 0.177197 11.7971 0.316423 11.7986 0.457231C11.8092 1.5125 11.8229 2.56936 11.8305 3.62463C11.8321 3.76385 11.8716 3.83347 12.0176 3.85245C12.2473 3.88251 12.4755 3.94105 12.7036 3.98693C17.0646 4.85868 20.7258 7.00877 23.6007 10.5385C26.1941 13.7217 27.6589 17.4159 27.9494 21.5848C28.0803 23.4707 27.9601 25.3534 27.5555 27.2045C26.8178 30.5855 25.3271 33.563 23.0576 36.1023C20.452 39.0165 17.273 40.9151 13.5509 41.8248C12.9896 41.9624 12.4222 42.0732 11.8001 42.2077C11.8016 43.4686 11.8016 44.7343 11.8016 46ZM11.8305 33.0915C15.0826 32.359 19.4968 28.7644 19.3827 22.7303C19.3295 19.9283 18.2875 17.6105 16.4516 15.6424C15.1693 14.2691 13.6148 13.3641 11.8321 12.8879C11.8305 19.6404 11.8305 26.3628 11.8305 33.0915Z" fill="black"/>
    </g>
    <g filter="url(#filter1_d)">
        <path d="M44.8164 25H42.4824V12.7246H38.2832V10.7227H49.0156V12.7246H44.8164V25ZM58.5859 25L58.2637 23.584H58.1465C57.8275 24.0853 57.3717 24.4792 56.7793 24.7656C56.1934 25.0521 55.5228 25.1953 54.7676 25.1953C53.459 25.1953 52.4824 24.8698 51.8379 24.2188C51.1934 23.5677 50.8711 22.5814 50.8711 21.2598V14.1992H53.1855V20.8594C53.1855 21.6862 53.3548 22.3079 53.6934 22.7246C54.0319 23.1348 54.5625 23.3398 55.2852 23.3398C56.2487 23.3398 56.9551 23.0534 57.4043 22.4805C57.86 21.901 58.0879 20.9342 58.0879 19.5801V14.1992H60.3926V25H58.5859ZM67.6875 23.3398C68.2474 23.3398 68.8073 23.252 69.3672 23.0762V24.8047C69.1133 24.9154 68.7845 25.0065 68.3809 25.0781C67.9837 25.1562 67.5703 25.1953 67.1406 25.1953C64.9661 25.1953 63.8789 24.0495 63.8789 21.7578V15.9375H62.4043V14.9219L63.9863 14.082L64.7676 11.7969H66.1836V14.1992H69.2598V15.9375H66.1836V21.7188C66.1836 22.2721 66.3203 22.6823 66.5938 22.9492C66.8737 23.2096 67.2383 23.3398 67.6875 23.3398ZM81.1152 19.5801C81.1152 21.3444 80.6628 22.7214 79.7578 23.7109C78.8529 24.7005 77.5931 25.1953 75.9785 25.1953C74.9694 25.1953 74.0775 24.9674 73.3027 24.5117C72.528 24.056 71.9323 23.4017 71.5156 22.5488C71.099 21.696 70.8906 20.7064 70.8906 19.5801C70.8906 17.8288 71.3398 16.4616 72.2383 15.4785C73.1367 14.4954 74.403 14.0039 76.0371 14.0039C77.5996 14.0039 78.8366 14.5085 79.748 15.5176C80.6595 16.5202 81.1152 17.8743 81.1152 19.5801ZM73.2539 19.5801C73.2539 22.0736 74.1751 23.3203 76.0176 23.3203C77.8405 23.3203 78.752 22.0736 78.752 19.5801C78.752 17.1126 77.834 15.8789 75.998 15.8789C75.0345 15.8789 74.3346 16.1979 73.8984 16.8359C73.4688 17.474 73.2539 18.3887 73.2539 19.5801ZM89.2402 14.0039C89.7025 14.0039 90.0833 14.0365 90.3828 14.1016L90.1582 16.2402C89.8327 16.1621 89.4941 16.123 89.1426 16.123C88.2246 16.123 87.4792 16.4225 86.9062 17.0215C86.3398 17.6204 86.0566 18.3984 86.0566 19.3555V25H83.7617V14.1992H85.5586L85.8613 16.1035H85.9785C86.3366 15.459 86.8021 14.9479 87.375 14.5703C87.9544 14.1927 88.5762 14.0039 89.2402 14.0039ZM104.25 17.7246C104.25 20.0814 103.596 21.8848 102.287 23.1348C100.979 24.3783 99.0938 25 96.6328 25H92.6387V10.7227H97.0527C99.3249 10.7227 101.092 11.3346 102.355 12.5586C103.618 13.7826 104.25 15.5046 104.25 17.7246ZM101.789 17.8027C101.789 14.3848 100.191 12.6758 96.9941 12.6758H94.9727V23.0371H96.6328C100.07 23.0371 101.789 21.2923 101.789 17.8027Z" fill="black"/>
    </g>
    <g filter="url(#filter2_d)">
        <path d="M51.0703 35.6738C51.0703 36.4355 50.7949 37.0332 50.2441 37.4668C49.6934 37.9004 48.9336 38.1172 47.9648 38.1172C46.9961 38.1172 46.2031 37.9668 45.5859 37.666V36.3418C45.9766 36.5254 46.3906 36.6699 46.8281 36.7754C47.2695 36.8809 47.6797 36.9336 48.0586 36.9336C48.6133 36.9336 49.0215 36.8281 49.2832 36.6172C49.5488 36.4062 49.6816 36.123 49.6816 35.7676C49.6816 35.4473 49.5605 35.1758 49.3184 34.9531C49.0762 34.7305 48.5762 34.4668 47.8184 34.1621C47.0371 33.8457 46.4863 33.4844 46.166 33.0781C45.8457 32.6719 45.6855 32.1836 45.6855 31.6133C45.6855 30.8984 45.9395 30.3359 46.4473 29.9258C46.9551 29.5156 47.6367 29.3105 48.4922 29.3105C49.3125 29.3105 50.1289 29.4902 50.9414 29.8496L50.4961 30.9922C49.7344 30.6719 49.0547 30.5117 48.457 30.5117C48.0039 30.5117 47.6602 30.6113 47.4258 30.8105C47.1914 31.0059 47.0742 31.2656 47.0742 31.5898C47.0742 31.8125 47.1211 32.0039 47.2148 32.1641C47.3086 32.3203 47.4629 32.4688 47.6777 32.6094C47.8926 32.75 48.2793 32.9355 48.8379 33.166C49.4668 33.4277 49.9277 33.6719 50.2207 33.8984C50.5137 34.125 50.7285 34.3809 50.8652 34.666C51.002 34.9512 51.0703 35.2871 51.0703 35.6738ZM55.1953 38.1172C54.2148 38.1172 53.4688 37.832 52.957 37.2617C52.4492 36.6875 52.1953 35.8652 52.1953 34.7949C52.1953 33.7051 52.4609 32.8672 52.9922 32.2812C53.5273 31.6953 54.2988 31.4023 55.3066 31.4023C55.9902 31.4023 56.6055 31.5293 57.1523 31.7832L56.7363 32.8906C56.1543 32.6641 55.6738 32.5508 55.2949 32.5508C54.1738 32.5508 53.6133 33.2949 53.6133 34.7832C53.6133 35.5098 53.752 36.0566 54.0293 36.4238C54.3105 36.7871 54.7207 36.9688 55.2598 36.9688C55.873 36.9688 56.4531 36.8164 57 36.5117V37.7129C56.7539 37.8574 56.4902 37.9609 56.209 38.0234C55.9316 38.0859 55.5938 38.1172 55.1953 38.1172ZM64.2246 38H62.8418V34.0156C62.8418 33.5156 62.7402 33.1426 62.5371 32.8965C62.3379 32.6504 62.0195 32.5273 61.582 32.5273C61.0039 32.5273 60.5781 32.7012 60.3047 33.0488C60.0352 33.3926 59.9004 33.9707 59.9004 34.7832V38H58.5234V28.8828H59.9004V31.1973C59.9004 31.5684 59.877 31.9648 59.8301 32.3867H59.918C60.1055 32.0742 60.3652 31.832 60.6973 31.6602C61.0332 31.4883 61.4238 31.4023 61.8691 31.4023C63.4395 31.4023 64.2246 32.1934 64.2246 33.7754V38ZM71.8887 34.748C71.8887 35.8066 71.6172 36.6328 71.0742 37.2266C70.5312 37.8203 69.7754 38.1172 68.8066 38.1172C68.2012 38.1172 67.666 37.9805 67.2012 37.707C66.7363 37.4336 66.3789 37.041 66.1289 36.5293C65.8789 36.0176 65.7539 35.4238 65.7539 34.748C65.7539 33.6973 66.0234 32.877 66.5625 32.2871C67.1016 31.6973 67.8613 31.4023 68.8418 31.4023C69.7793 31.4023 70.5215 31.7051 71.0684 32.3105C71.6152 32.9121 71.8887 33.7246 71.8887 34.748ZM67.1719 34.748C67.1719 36.2441 67.7246 36.9922 68.8301 36.9922C69.9238 36.9922 70.4707 36.2441 70.4707 34.748C70.4707 33.2676 69.9199 32.5273 68.8184 32.5273C68.2402 32.5273 67.8203 32.7188 67.5586 33.1016C67.3008 33.4844 67.1719 34.0332 67.1719 34.748ZM74.8535 38H73.4766V28.8828H74.8535V38ZM80.8828 38L80.6074 37.0977H80.5605C80.248 37.4922 79.9336 37.7617 79.6172 37.9062C79.3008 38.0469 78.8945 38.1172 78.3984 38.1172C77.7617 38.1172 77.2637 37.9453 76.9043 37.6016C76.5488 37.2578 76.3711 36.7715 76.3711 36.1426C76.3711 35.4746 76.6191 34.9707 77.1152 34.6309C77.6113 34.291 78.3672 34.1055 79.3828 34.0742L80.502 34.0391V33.6934C80.502 33.2793 80.4043 32.9707 80.209 32.7676C80.0176 32.5605 79.7188 32.457 79.3125 32.457C78.9805 32.457 78.6621 32.5059 78.3574 32.6035C78.0527 32.7012 77.7598 32.8164 77.4785 32.9492L77.0332 31.9648C77.3848 31.7812 77.7695 31.6426 78.1875 31.5488C78.6055 31.4512 79 31.4023 79.3711 31.4023C80.1953 31.4023 80.8164 31.582 81.2344 31.9414C81.6562 32.3008 81.8672 32.8652 81.8672 33.6348V38H80.8828ZM78.832 37.0625C79.332 37.0625 79.7324 36.9238 80.0332 36.6465C80.3379 36.3652 80.4902 35.9727 80.4902 35.4688V34.9062L79.6582 34.9414C79.0098 34.9648 78.5371 35.0742 78.2402 35.2695C77.9473 35.4609 77.8008 35.7559 77.8008 36.1543C77.8008 36.4434 77.8867 36.668 78.0586 36.8281C78.2305 36.9844 78.4883 37.0625 78.832 37.0625ZM87.0762 31.4023C87.3535 31.4023 87.582 31.4219 87.7617 31.4609L87.627 32.7441C87.4316 32.6973 87.2285 32.6738 87.0176 32.6738C86.4668 32.6738 86.0195 32.8535 85.6758 33.2129C85.3359 33.5723 85.166 34.0391 85.166 34.6133V38H83.7891V31.5195H84.8672L85.0488 32.6621H85.1191C85.334 32.2754 85.6133 31.9688 85.957 31.7422C86.3047 31.5156 86.6777 31.4023 87.0762 31.4023ZM93.3223 36.1543C93.3223 36.7871 93.0918 37.2734 92.6309 37.6133C92.1699 37.9492 91.5098 38.1172 90.6504 38.1172C89.7871 38.1172 89.0938 37.9863 88.5703 37.7246V36.5352C89.332 36.8867 90.041 37.0625 90.6973 37.0625C91.5449 37.0625 91.9688 36.8066 91.9688 36.2949C91.9688 36.1309 91.9219 35.9941 91.8281 35.8848C91.7344 35.7754 91.5801 35.6621 91.3652 35.5449C91.1504 35.4277 90.8516 35.2949 90.4688 35.1465C89.7227 34.8574 89.2168 34.5684 88.9512 34.2793C88.6895 33.9902 88.5586 33.6152 88.5586 33.1543C88.5586 32.5996 88.7812 32.1699 89.2266 31.8652C89.6758 31.5566 90.2852 31.4023 91.0547 31.4023C91.8164 31.4023 92.5371 31.5566 93.2168 31.8652L92.7715 32.9023C92.0723 32.6133 91.4844 32.4688 91.0078 32.4688C90.2812 32.4688 89.918 32.6758 89.918 33.0898C89.918 33.293 90.0117 33.4648 90.1992 33.6055C90.3906 33.7461 90.8047 33.9395 91.4414 34.1855C91.9766 34.3926 92.3652 34.582 92.6074 34.7539C92.8496 34.9258 93.0293 35.125 93.1465 35.3516C93.2637 35.5742 93.3223 35.8418 93.3223 36.1543Z" fill="black"/>
    </g>
    <path d="M33 46H34L34 0H33L33 46Z" fill="#FFDC54"/>
    <defs>
        <filter id="filter0_d" x="0" y="0" width="32" height="54" filterUnits="userSpaceOnUse" color-interpolation-filters="sRGB">
            <feFlood flood-opacity="0" result="BackgroundImageFix"/>
            <feColorMatrix in="SourceAlpha" type="matrix" values="0 0 0 0 0 0 0 0 0 0 0 0 0 0 0 0 0 0 127 0"/>
            <feOffset dy="4"/>
            <feGaussianBlur stdDeviation="2"/>
            <feColorMatrix type="matrix" values="0 0 0 0 0 0 0 0 0 0 0 0 0 0 0 0 0 0 0.25 0"/>
            <feBlend mode="normal" in2="BackgroundImageFix" result="effect1_dropShadow"/>
            <feBlend mode="normal" in="SourceGraphic" in2="effect1_dropShadow" result="shape"/>
        </filter>
        <filter id="filter1_d" x="34.2832" y="10.7227" width="73.9668" height="22.4727" filterUnits="userSpaceOnUse" color-interpolation-filters="sRGB">
            <feFlood flood-opacity="0" result="BackgroundImageFix"/>
            <feColorMatrix in="SourceAlpha" type="matrix" values="0 0 0 0 0 0 0 0 0 0 0 0 0 0 0 0 0 0 127 0"/>
            <feOffset dy="4"/>
            <feGaussianBlur stdDeviation="2"/>
            <feColorMatrix type="matrix" values="0 0 0 0 0 0 0 0 0 0 0 0 0 0 0 0 0 0 0.25 0"/>
            <feBlend mode="normal" in2="BackgroundImageFix" result="effect1_dropShadow"/>
            <feBlend mode="normal" in="SourceGraphic" in2="effect1_dropShadow" result="shape"/>
        </filter>
        <filter id="filter2_d" x="41.5859" y="28.8828" width="55.7363" height="17.2344" filterUnits="userSpaceOnUse" color-interpolation-filters="sRGB">
            <feFlood flood-opacity="0" result="BackgroundImageFix"/>
            <feColorMatrix in="SourceAlpha" type="matrix" values="0 0 0 0 0 0 0 0 0 0 0 0 0 0 0 0 0 0 127 0"/>
            <feOffset dy="4"/>
            <feGaussianBlur stdDeviation="2"/>
            <feColorMatrix type="matrix" values="0 0 0 0 0 0 0 0 0 0 0 0 0 0 0 0 0 0 0.25 0"/>
            <feBlend mode="normal" in2="BackgroundImageFix" result="effect1_dropShadow"/>
            <feBlend mode="normal" in="SourceGraphic" in2="effect1_dropShadow" result="shape"/>
        </filter>
    </defs>
</svg>
