<?xml version="1.0" encoding="iso-8859-1"?>
<!-- Generator: Adobe Illustrator 19.0.0, SVG Export Plug-In . SVG Version: 6.00 Build 0)  -->
<svg version="1.1" id="Capa_1" xmlns="http://www.w3.org/2000/svg" xmlns:xlink="http://www.w3.org/1999/xlink" x="0px" y="0px"
	 viewBox="0 0 512.58 512.58" style="enable-background:new 0 0 512.58 512.58;" xml:space="preserve">
<g>
	<g>
		<g>
			<path d="M428.482,7.023c-1.496-1.529-3.009-3.042-4.538-4.538c-3.261-3.245-8.508-3.321-11.861-0.171l-409.6,409.6
				c-3.309,3.328-3.309,8.704,0,12.032c113.877,116.383,300.54,118.415,416.923,4.538c1.529-1.496,3.042-3.009,4.538-4.538
				C540.328,310.069,542.359,123.406,428.482,7.023z M411.912,411.743l0.171,0.171c-106.659,109.198-281.437,111.904-391.424,6.059
				l13.483-13.568l19.541,19.541c3.58,3.065,8.966,2.649,12.032-0.931c2.736-3.195,2.736-7.906,0-11.101l-19.541-19.541
				l13.568-13.568l19.541,19.541c3.58,3.065,8.967,2.649,12.032-0.931c2.736-3.195,2.736-7.906,0-11.101l-19.541-19.541
				l13.568-13.568l19.541,19.541c3.58,3.065,8.966,2.649,12.032-0.931c2.736-3.195,2.736-7.906,0-11.101l-19.541-19.541
				l13.568-13.568l19.541,19.541c3.58,3.065,8.966,2.649,12.032-0.931c2.736-3.195,2.736-7.906,0-11.101l-19.541-19.541
				l13.568-13.568l19.541,19.541c3.58,3.065,8.966,2.649,12.032-0.931c2.736-3.195,2.736-7.906,0-11.101l-19.541-19.541
				l13.568-13.568l19.541,19.541c3.58,3.065,8.966,2.649,12.032-0.931c2.736-3.195,2.736-7.906,0-11.101l-19.541-19.541
				l13.568-13.568l19.541,19.541c3.58,3.065,8.967,2.649,12.032-0.931c2.736-3.195,2.736-7.906,0-11.101l-19.541-19.541
				l13.568-13.568l19.541,19.541c3.58,3.065,8.966,2.649,12.032-0.931c2.736-3.195,2.736-7.906,0-11.101l-19.541-19.541
				l13.568-13.568l19.541,19.541c3.58,3.065,8.967,2.649,12.032-0.931c2.736-3.195,2.736-7.906,0-11.101l-19.541-19.541
				l13.568-13.568l19.541,19.541c3.58,3.065,8.966,2.649,12.032-0.931c2.736-3.195,2.736-7.906,0-11.101l-19.541-19.541
				l13.568-13.568l19.541,19.541c3.58,3.065,8.966,2.649,12.032-0.931c2.736-3.195,2.736-7.906,0-11.101l-19.541-19.541
				l13.568-13.568l19.541,19.541c3.58,3.065,8.966,2.649,12.032-0.931c2.736-3.195,2.736-7.906,0-11.101l-19.541-19.541
				l13.568-13.568l19.541,19.541c3.58,3.065,8.966,2.649,12.032-0.931c2.736-3.195,2.736-7.906,0-11.101l-19.541-19.541
				l13.568-13.568l19.541,19.541c3.58,3.065,8.967,2.649,12.032-0.931c2.736-3.195,2.736-7.906,0-11.101l-19.541-19.541
				l13.568-13.568l19.541,19.541c3.58,3.065,8.966,2.649,12.032-0.931c2.736-3.195,2.736-7.906,0-11.101l-19.541-19.541
				l13.568-13.483C523.827,130.502,521.046,305.151,411.912,411.743z"/>
			<path d="M413.704,138.676c-1.128-2.765-3.62-4.74-6.571-5.205c-2.839-0.618-5.797,0.25-7.851,2.304L136.03,399.114
				c-3.328,3.336-3.322,8.739,0.014,12.068c0.845,0.843,1.858,1.499,2.972,1.927c23.755,8.946,48.942,13.486,74.325,13.397
				c56.623-0.087,110.858-22.826,150.613-63.147C423.871,305.093,443.423,216.789,413.704,138.676z M351.582,351.412
				c-36.505,36.993-86.268,57.881-138.24,58.027c-18.729,0.01-37.358-2.721-55.296-8.107l243.712-243.797
				C422.528,226.46,403.181,301.216,351.582,351.412z"/>
		</g>
	</g>
</g>
<g>
</g>
<g>
</g>
<g>
</g>
<g>
</g>
<g>
</g>
<g>
</g>
<g>
</g>
<g>
</g>
<g>
</g>
<g>
</g>
<g>
</g>
<g>
</g>
<g>
</g>
<g>
</g>
<g>
</g>
</svg>
