<?xml version="1.0" encoding="iso-8859-1"?>
<!-- Generator: Adobe Illustrator 19.0.0, SVG Export Plug-In . SVG Version: 6.00 Build 0)  -->
<svg version="1.1" id="Layer_1" xmlns="http://www.w3.org/2000/svg" xmlns:xlink="http://www.w3.org/1999/xlink" x="0px" y="0px"
	 viewBox="0 0 512.624 512.624" style="enable-background:new 0 0 512.624 512.624;" xml:space="preserve">
<g>
	<g>
		<path d="M428.526,7.067c-1.496-1.529-3.009-3.042-4.538-4.538c-3.238-3.269-8.485-3.383-11.861-0.256l-409.6,409.6
			c-3.346,3.319-3.368,8.722-0.049,12.068c0.016,0.017,0.033,0.033,0.049,0.049c113.877,116.383,300.54,118.415,416.923,4.538
			c1.529-1.496,3.042-3.009,4.538-4.538C540.371,310.113,542.403,123.45,428.526,7.067z M379.102,59.531l19.541,19.541
			c3.346,3.319,3.368,8.722,0.049,12.068c-0.016,0.017-0.033,0.033-0.049,0.049c-3.319,3.346-8.722,3.368-12.068,0.049
			c-0.017-0.016-0.033-0.033-0.049-0.049l-19.541-19.541L379.102,59.531z M353.502,85.131l19.541,19.541
			c3.346,3.319,3.368,8.722,0.049,12.068c-0.016,0.017-0.033,0.033-0.049,0.049c-3.319,3.346-8.722,3.368-12.068,0.049
			c-0.017-0.016-0.033-0.033-0.049-0.049l-19.541-19.541L353.502,85.131z M327.902,110.731l19.541,19.541
			c3.346,3.319,3.368,8.722,0.049,12.068c-0.016,0.017-0.033,0.033-0.049,0.049c-3.319,3.346-8.722,3.368-12.068,0.049
			c-0.017-0.016-0.033-0.033-0.049-0.049l-19.541-19.541L327.902,110.731z M302.302,136.331l19.541,19.541
			c3.346,3.319,3.368,8.722,0.049,12.068c-0.016,0.017-0.033,0.033-0.049,0.049c-3.319,3.346-8.722,3.368-12.068,0.049
			c-0.017-0.016-0.033-0.033-0.049-0.049l-19.541-19.541L302.302,136.331z M276.702,161.931l19.541,19.541
			c3.346,3.319,3.368,8.722,0.049,12.068c-0.016,0.017-0.033,0.033-0.049,0.049c-3.319,3.346-8.722,3.368-12.068,0.049
			c-0.017-0.016-0.033-0.033-0.049-0.049l-19.541-19.541L276.702,161.931z M251.102,187.531l19.541,19.541
			c3.346,3.319,3.368,8.722,0.049,12.068c-0.016,0.017-0.033,0.033-0.049,0.049c-3.319,3.346-8.722,3.368-12.068,0.049
			c-0.017-0.016-0.033-0.033-0.049-0.049l-19.541-19.541L251.102,187.531z M225.502,213.131l19.541,19.541
			c3.346,3.319,3.368,8.722,0.049,12.068c-0.016,0.017-0.033,0.033-0.049,0.049c-3.319,3.346-8.722,3.368-12.068,0.049
			c-0.017-0.016-0.033-0.033-0.049-0.049l-19.541-19.541L225.502,213.131z M199.902,238.731l19.541,19.541
			c3.346,3.319,3.368,8.722,0.049,12.068c-0.016,0.017-0.033,0.033-0.049,0.049c-3.319,3.346-8.722,3.368-12.068,0.049
			c-0.017-0.016-0.033-0.033-0.049-0.049l-19.541-19.541L199.902,238.731z M174.302,264.331l19.541,19.541
			c3.346,3.319,3.368,8.722,0.049,12.068c-0.016,0.017-0.033,0.033-0.049,0.049c-3.319,3.346-8.722,3.368-12.068,0.049
			c-0.017-0.016-0.033-0.033-0.049-0.049l-19.541-19.541L174.302,264.331z M65.893,423.94c-0.016,0.017-0.033,0.033-0.049,0.049
			c-3.319,3.346-8.722,3.368-12.068,0.049c-0.017-0.016-0.033-0.033-0.049-0.049l-19.541-19.541l12.117-12.117l19.541,19.541
			C69.19,415.191,69.212,420.594,65.893,423.94z M91.493,398.34c-0.016,0.017-0.033,0.033-0.049,0.049
			c-3.319,3.346-8.722,3.368-12.068,0.049c-0.017-0.016-0.033-0.033-0.049-0.049l-19.541-19.541l12.117-12.117l19.541,19.541
			C94.79,389.591,94.812,394.994,91.493,398.34z M117.093,372.74c-0.016,0.017-0.033,0.033-0.049,0.049
			c-3.319,3.346-8.722,3.368-12.068,0.049c-0.017-0.016-0.033-0.033-0.049-0.049l-19.541-19.541l12.117-12.117l19.541,19.541
			C120.39,363.991,120.412,369.394,117.093,372.74z M142.693,347.14c-0.016,0.017-0.033,0.033-0.049,0.049
			c-3.319,3.346-8.722,3.368-12.068,0.049c-0.017-0.016-0.033-0.033-0.049-0.049l-19.541-19.541l12.117-12.117l19.541,19.541
			C145.99,338.391,146.012,343.794,142.693,347.14z M156.126,321.59l-19.541-19.541l12.117-12.117l19.541,19.541
			c3.346,3.319,3.368,8.722,0.049,12.068c-0.016,0.017-0.033,0.033-0.049,0.049c-3.319,3.346-8.722,3.368-12.068,0.049
			C156.159,321.623,156.143,321.606,156.126,321.59z M351.625,351.371c-50.357,51.261-124.902,70.529-193.792,50.091
			l243.968-243.968C422.571,226.419,403.224,301.175,351.625,351.371z M424.293,65.54c-0.016,0.017-0.033,0.033-0.049,0.049
			c-3.319,3.346-8.722,3.368-12.068,0.049c-0.017-0.016-0.033-0.033-0.049-0.049l-19.541-19.541l12.117-12.117l19.541,19.541
			C427.59,56.791,427.612,62.194,424.293,65.54z"/>
	</g>
</g>
<g>
</g>
<g>
</g>
<g>
</g>
<g>
</g>
<g>
</g>
<g>
</g>
<g>
</g>
<g>
</g>
<g>
</g>
<g>
</g>
<g>
</g>
<g>
</g>
<g>
</g>
<g>
</g>
<g>
</g>
</svg>
